<svg id="visual" viewBox="0 0 900 600" width="900" height="600" xmlns="http://www.w3.org/2000/svg" xmlns:xlink="http://www.w3.org/1999/xlink" version="1.1"><path d="M0 91L13.7 108C27.3 125 54.7 159 82 180C109.3 201 136.7 209 163.8 195C191 181 218 145 245.2 128C272.3 111 299.7 113 327 144C354.3 175 381.7 235 409 257C436.3 279 463.7 263 491 251C518.3 239 545.7 231 573 212C600.3 193 627.7 163 654.8 150C682 137 709 141 736.2 137C763.3 133 790.7 121 818 140C845.3 159 872.7 209 886.3 234L900 259L900 0L886.3 0C872.7 0 845.3 0 818 0C790.7 0 763.3 0 736.2 0C709 0 682 0 654.8 0C627.7 0 600.3 0 573 0C545.7 0 518.3 0 491 0C463.7 0 436.3 0 409 0C381.7 0 354.3 0 327 0C299.7 0 272.3 0 245.2 0C218 0 191 0 163.8 0C136.7 0 109.3 0 82 0C54.7 0 27.3 0 13.7 0L0 0Z" fill="#0066ff"></path><path d="M0 139L13.7 157C27.3 175 54.7 211 82 240C109.3 269 136.7 291 163.8 277C191 263 218 213 245.2 192C272.3 171 299.7 179 327 208C354.3 237 381.7 287 409 311C436.3 335 463.7 333 491 328C518.3 323 545.7 315 573 289C600.3 263 627.7 219 654.8 211C682 203 709 231 736.2 229C763.3 227 790.7 195 818 207C845.3 219 872.7 275 886.3 303L900 331L900 257L886.3 232C872.7 207 845.3 157 818 138C790.7 119 763.3 131 736.2 135C709 139 682 135 654.8 148C627.7 161 600.3 191 573 210C545.7 229 518.3 237 491 249C463.7 261 436.3 277 409 255C381.7 233 354.3 173 327 142C299.7 111 272.3 109 245.2 126C218 143 191 179 163.8 193C136.7 207 109.3 199 82 178C54.7 157 27.3 123 13.7 106L0 89Z" fill="#0b53e4"></path><path d="M0 223L13.7 243C27.3 263 54.7 303 82 332C109.3 361 136.7 379 163.8 358C191 337 218 277 245.2 256C272.3 235 299.7 253 327 282C354.3 311 381.7 351 409 368C436.3 385 463.7 379 491 371C518.3 363 545.7 353 573 327C600.3 301 627.7 259 654.8 253C682 247 709 277 736.2 285C763.3 293 790.7 279 818 299C845.3 319 872.7 373 886.3 400L900 427L900 329L886.3 301C872.7 273 845.3 217 818 205C790.7 193 763.3 225 736.2 227C709 229 682 201 654.8 209C627.7 217 600.3 261 573 287C545.7 313 518.3 321 491 326C463.7 331 436.3 333 409 309C381.7 285 354.3 235 327 206C299.7 177 272.3 169 245.2 190C218 211 191 261 163.8 275C136.7 289 109.3 267 82 238C54.7 209 27.3 173 13.7 155L0 137Z" fill="#0c40ca"></path><path d="M0 385L13.7 404C27.3 423 54.7 461 82 475C109.3 489 136.7 479 163.8 451C191 423 218 377 245.2 370C272.3 363 299.7 395 327 417C354.3 439 381.7 451 409 455C436.3 459 463.7 455 491 453C518.3 451 545.7 451 573 431C600.3 411 627.7 371 654.8 373C682 375 709 419 736.2 421C763.3 423 790.7 383 818 392C845.3 401 872.7 459 886.3 488L900 517L900 425L886.3 398C872.7 371 845.3 317 818 297C790.7 277 763.3 291 736.2 283C709 275 682 245 654.8 251C627.7 257 600.3 299 573 325C545.7 351 518.3 361 491 369C463.7 377 436.3 383 409 366C381.7 349 354.3 309 327 280C299.7 251 272.3 233 245.2 254C218 275 191 335 163.8 356C136.7 377 109.3 359 82 330C54.7 301 27.3 261 13.7 241L0 221Z" fill="#082eb1"></path><path d="M0 601L13.7 601C27.3 601 54.7 601 82 601C109.3 601 136.7 601 163.8 601C191 601 218 601 245.2 601C272.3 601 299.7 601 327 601C354.3 601 381.7 601 409 601C436.3 601 463.7 601 491 601C518.3 601 545.7 601 573 601C600.3 601 627.7 601 654.8 601C682 601 709 601 736.2 601C763.3 601 790.7 601 818 601C845.3 601 872.7 601 886.3 601L900 601L900 515L886.3 486C872.7 457 845.3 399 818 390C790.7 381 763.3 421 736.2 419C709 417 682 373 654.8 371C627.7 369 600.3 409 573 429C545.7 449 518.3 449 491 451C463.7 453 436.3 457 409 453C381.7 449 354.3 437 327 415C299.7 393 272.3 361 245.2 368C218 375 191 421 163.8 449C136.7 477 109.3 487 82 473C54.7 459 27.3 421 13.7 402L0 383Z" fill="#001b98"></path></svg>