<svg id="visual" viewBox="0 0 900 600" width="900" height="600" xmlns="http://www.w3.org/2000/svg" xmlns:xlink="http://www.w3.org/1999/xlink" version="1.1"><path d="M0 61L16.7 66C33.3 71 66.7 81 100 86C133.3 91 166.7 91 200 94C233.3 97 266.7 103 300 101C333.3 99 366.7 89 400 79C433.3 69 466.7 59 500 68C533.3 77 566.7 105 600 107C633.3 109 666.7 85 700 82C733.3 79 766.7 97 800 105C833.3 113 866.7 111 883.3 110L900 109L900 0L883.3 0C866.7 0 833.3 0 800 0C766.7 0 733.3 0 700 0C666.7 0 633.3 0 600 0C566.7 0 533.3 0 500 0C466.7 0 433.3 0 400 0C366.7 0 333.3 0 300 0C266.7 0 233.3 0 200 0C166.7 0 133.3 0 100 0C66.7 0 33.3 0 16.7 0L0 0Z" fill="#001b98"></path><path d="M0 115L16.7 124C33.3 133 66.7 151 100 157C133.3 163 166.7 157 200 163C233.3 169 266.7 187 300 201C333.3 215 366.7 225 400 209C433.3 193 466.7 151 500 143C533.3 135 566.7 161 600 172C633.3 183 666.7 179 700 183C733.3 187 766.7 199 800 212C833.3 225 866.7 239 883.3 246L900 253L900 107L883.3 108C866.7 109 833.3 111 800 103C766.7 95 733.3 77 700 80C666.7 83 633.3 107 600 105C566.7 103 533.3 75 500 66C466.7 57 433.3 67 400 77C366.7 87 333.3 97 300 99C266.7 101 233.3 95 200 92C166.7 89 133.3 89 100 84C66.7 79 33.3 69 16.7 64L0 59Z" fill="#0c49d7"></path><path d="M0 193L16.7 205C33.3 217 66.7 241 100 241C133.3 241 166.7 217 200 223C233.3 229 266.7 265 300 285C333.3 305 366.7 309 400 286C433.3 263 466.7 213 500 198C533.3 183 566.7 203 600 221C633.3 239 666.7 255 700 261C733.3 267 766.7 263 800 266C833.3 269 866.7 279 883.3 284L900 289L900 251L883.3 244C866.7 237 833.3 223 800 210C766.7 197 733.3 185 700 181C666.7 177 633.3 181 600 170C566.7 159 533.3 133 500 141C466.7 149 433.3 191 400 207C366.7 223 333.3 213 300 199C266.7 185 233.3 167 200 161C166.7 155 133.3 161 100 155C66.7 149 33.3 131 16.7 122L0 113Z" fill="#0066ff"></path><path d="M0 415L16.7 408C33.3 401 66.7 387 100 378C133.3 369 166.7 365 200 377C233.3 389 266.7 417 300 432C333.3 447 366.7 449 400 446C433.3 443 466.7 435 500 435C533.3 435 566.7 443 600 442C633.3 441 666.7 431 700 420C733.3 409 766.7 397 800 399C833.3 401 866.7 417 883.3 425L900 433L900 287L883.3 282C866.7 277 833.3 267 800 264C766.7 261 733.3 265 700 259C666.7 253 633.3 237 600 219C566.7 201 533.3 181 500 196C466.7 211 433.3 261 400 284C366.7 307 333.3 303 300 283C266.7 263 233.3 227 200 221C166.7 215 133.3 239 100 239C66.7 239 33.3 215 16.7 203L0 191Z" fill="#0c49d7"></path><path d="M0 601L16.7 601C33.3 601 66.7 601 100 601C133.3 601 166.7 601 200 601C233.3 601 266.7 601 300 601C333.3 601 366.7 601 400 601C433.3 601 466.7 601 500 601C533.3 601 566.7 601 600 601C633.3 601 666.7 601 700 601C733.3 601 766.7 601 800 601C833.3 601 866.7 601 883.3 601L900 601L900 431L883.3 423C866.7 415 833.3 399 800 397C766.7 395 733.3 407 700 418C666.7 429 633.3 439 600 440C566.7 441 533.3 433 500 433C466.7 433 433.3 441 400 444C366.7 447 333.3 445 300 430C266.7 415 233.3 387 200 375C166.7 363 133.3 367 100 376C66.7 385 33.3 399 16.7 406L0 413Z" fill="#001b98"></path></svg>