<svg id="visual" viewBox="0 0 900 600" width="900" height="600" xmlns="http://www.w3.org/2000/svg" xmlns:xlink="http://www.w3.org/1999/xlink" version="1.1"><path d="M0 133L16.7 142C33.3 151 66.7 169 100 192C133.3 215 166.7 243 200 247C233.3 251 266.7 231 300 225C333.3 219 366.7 227 400 216C433.3 205 466.7 175 500 172C533.3 169 566.7 193 600 184C633.3 175 666.7 133 700 118C733.3 103 766.7 115 800 131C833.3 147 866.7 167 883.3 177L900 187L900 0L883.3 0C866.7 0 833.3 0 800 0C766.7 0 733.3 0 700 0C666.7 0 633.3 0 600 0C566.7 0 533.3 0 500 0C466.7 0 433.3 0 400 0C366.7 0 333.3 0 300 0C266.7 0 233.3 0 200 0C166.7 0 133.3 0 100 0C66.7 0 33.3 0 16.7 0L0 0Z" fill="#001b98"></path><path d="M0 241L16.7 242C33.3 243 66.7 245 100 261C133.3 277 166.7 307 200 318C233.3 329 266.7 321 300 312C333.3 303 366.7 293 400 280C433.3 267 466.7 251 500 255C533.3 259 566.7 283 600 269C633.3 255 666.7 203 700 192C733.3 181 766.7 211 800 232C833.3 253 866.7 265 883.3 271L900 277L900 185L883.3 175C866.7 165 833.3 145 800 129C766.7 113 733.3 101 700 116C666.7 131 633.3 173 600 182C566.7 191 533.3 167 500 170C466.7 173 433.3 203 400 214C366.7 225 333.3 217 300 223C266.7 229 233.3 249 200 245C166.7 241 133.3 213 100 190C66.7 167 33.3 149 16.7 140L0 131Z" fill="#0c49d7"></path><path d="M0 325L16.7 333C33.3 341 66.7 357 100 368C133.3 379 166.7 385 200 386C233.3 387 266.7 383 300 376C333.3 369 366.7 359 400 346C433.3 333 466.7 317 500 324C533.3 331 566.7 361 600 360C633.3 359 666.7 327 700 315C733.3 303 766.7 311 800 317C833.3 323 866.7 327 883.3 329L900 331L900 275L883.3 269C866.7 263 833.3 251 800 230C766.7 209 733.3 179 700 190C666.7 201 633.3 253 600 267C566.7 281 533.3 257 500 253C466.7 249 433.3 265 400 278C366.7 291 333.3 301 300 310C266.7 319 233.3 327 200 316C166.7 305 133.3 275 100 259C66.7 243 33.3 241 16.7 240L0 239Z" fill="#0066ff"></path><path d="M0 421L16.7 425C33.3 429 66.7 437 100 444C133.3 451 166.7 457 200 459C233.3 461 266.7 459 300 455C333.3 451 366.7 445 400 434C433.3 423 466.7 407 500 409C533.3 411 566.7 431 600 431C633.3 431 666.7 411 700 403C733.3 395 766.7 399 800 398C833.3 397 866.7 391 883.3 388L900 385L900 329L883.3 327C866.7 325 833.3 321 800 315C766.7 309 733.3 301 700 313C666.7 325 633.3 357 600 358C566.7 359 533.3 329 500 322C466.7 315 433.3 331 400 344C366.7 357 333.3 367 300 374C266.7 381 233.3 385 200 384C166.7 383 133.3 377 100 366C66.7 355 33.3 339 16.7 331L0 323Z" fill="#0c49d7"></path><path d="M0 601L16.7 601C33.3 601 66.7 601 100 601C133.3 601 166.7 601 200 601C233.3 601 266.7 601 300 601C333.3 601 366.7 601 400 601C433.3 601 466.7 601 500 601C533.3 601 566.7 601 600 601C633.3 601 666.7 601 700 601C733.3 601 766.7 601 800 601C833.3 601 866.7 601 883.3 601L900 601L900 383L883.3 386C866.7 389 833.3 395 800 396C766.7 397 733.3 393 700 401C666.7 409 633.3 429 600 429C566.7 429 533.3 409 500 407C466.7 405 433.3 421 400 432C366.7 443 333.3 449 300 453C266.7 457 233.3 459 200 457C166.7 455 133.3 449 100 442C66.7 435 33.3 427 16.7 423L0 419Z" fill="#001b98"></path></svg>