<svg id="visual" viewBox="0 0 900 600" width="900" height="600" xmlns="http://www.w3.org/2000/svg" xmlns:xlink="http://www.w3.org/1999/xlink" version="1.1"><path d="M0 97L16.7 112C33.3 127 66.7 157 100 168C133.3 179 166.7 171 200 159C233.3 147 266.7 131 300 136C333.3 141 366.7 167 400 194C433.3 221 466.7 249 500 254C533.3 259 566.7 241 600 229C633.3 217 666.7 211 700 193C733.3 175 766.7 145 800 157C833.3 169 866.7 223 883.3 250L900 277L900 0L883.3 0C866.7 0 833.3 0 800 0C766.7 0 733.3 0 700 0C666.7 0 633.3 0 600 0C566.7 0 533.3 0 500 0C466.7 0 433.3 0 400 0C366.7 0 333.3 0 300 0C266.7 0 233.3 0 200 0C166.7 0 133.3 0 100 0C66.7 0 33.3 0 16.7 0L0 0Z" fill="#001b98"></path><path d="M0 157L16.7 169C33.3 181 66.7 205 100 216C133.3 227 166.7 225 200 212C233.3 199 266.7 175 300 180C333.3 185 366.7 219 400 246C433.3 273 466.7 293 500 303C533.3 313 566.7 313 600 306C633.3 299 666.7 285 700 266C733.3 247 766.7 223 800 233C833.3 243 866.7 287 883.3 309L900 331L900 275L883.3 248C866.7 221 833.3 167 800 155C766.7 143 733.3 173 700 191C666.7 209 633.3 215 600 227C566.7 239 533.3 257 500 252C466.7 247 433.3 219 400 192C366.7 165 333.3 139 300 134C266.7 129 233.3 145 200 157C166.7 169 133.3 177 100 166C66.7 155 33.3 125 16.7 110L0 95Z" fill="#0c49d7"></path><path d="M0 397L16.7 401C33.3 405 66.7 413 100 403C133.3 393 166.7 365 200 371C233.3 377 266.7 417 300 428C333.3 439 366.7 421 400 415C433.3 409 466.7 415 500 421C533.3 427 566.7 433 600 423C633.3 413 666.7 387 700 382C733.3 377 766.7 393 800 408C833.3 423 866.7 437 883.3 444L900 451L900 329L883.3 307C866.7 285 833.3 241 800 231C766.7 221 733.3 245 700 264C666.7 283 633.3 297 600 304C566.7 311 533.3 311 500 301C466.7 291 433.3 271 400 244C366.7 217 333.3 183 300 178C266.7 173 233.3 197 200 210C166.7 223 133.3 225 100 214C66.7 203 33.3 179 16.7 167L0 155Z" fill="#0066ff"></path><path d="M0 487L16.7 493C33.3 499 66.7 511 100 504C133.3 497 166.7 471 200 472C233.3 473 266.7 501 300 506C333.3 511 366.7 493 400 487C433.3 481 466.7 487 500 498C533.3 509 566.7 525 600 519C633.3 513 666.7 485 700 474C733.3 463 766.7 469 800 484C833.3 499 866.7 523 883.3 535L900 547L900 449L883.3 442C866.7 435 833.3 421 800 406C766.7 391 733.3 375 700 380C666.7 385 633.3 411 600 421C566.7 431 533.3 425 500 419C466.7 413 433.3 407 400 413C366.7 419 333.3 437 300 426C266.7 415 233.3 375 200 369C166.7 363 133.3 391 100 401C66.7 411 33.3 403 16.7 399L0 395Z" fill="#0c49d7"></path><path d="M0 601L16.7 601C33.3 601 66.7 601 100 601C133.3 601 166.7 601 200 601C233.3 601 266.7 601 300 601C333.3 601 366.7 601 400 601C433.3 601 466.7 601 500 601C533.3 601 566.7 601 600 601C633.3 601 666.7 601 700 601C733.3 601 766.7 601 800 601C833.3 601 866.7 601 883.3 601L900 601L900 545L883.3 533C866.7 521 833.3 497 800 482C766.7 467 733.3 461 700 472C666.7 483 633.3 511 600 517C566.7 523 533.3 507 500 496C466.7 485 433.3 479 400 485C366.7 491 333.3 509 300 504C266.7 499 233.3 471 200 470C166.7 469 133.3 495 100 502C66.7 509 33.3 497 16.7 491L0 485Z" fill="#001b98"></path></svg>