<svg id="visual" viewBox="0 0 900 600" width="900" height="600" xmlns="http://www.w3.org/2000/svg" xmlns:xlink="http://www.w3.org/1999/xlink" version="1.1"><path d="M0 199L16.7 190C33.3 181 66.7 163 100 171C133.3 179 166.7 213 200 223C233.3 233 266.7 219 300 209C333.3 199 366.7 193 400 194C433.3 195 466.7 203 500 201C533.3 199 566.7 187 600 181C633.3 175 666.7 175 700 172C733.3 169 766.7 163 800 175C833.3 187 866.7 217 883.3 232L900 247L900 0L883.3 0C866.7 0 833.3 0 800 0C766.7 0 733.3 0 700 0C666.7 0 633.3 0 600 0C566.7 0 533.3 0 500 0C466.7 0 433.3 0 400 0C366.7 0 333.3 0 300 0C266.7 0 233.3 0 200 0C166.7 0 133.3 0 100 0C66.7 0 33.3 0 16.7 0L0 0Z" fill="#001b98"></path><path d="M0 349L16.7 345C33.3 341 66.7 333 100 337C133.3 341 166.7 357 200 370C233.3 383 266.7 393 300 394C333.3 395 366.7 387 400 380C433.3 373 466.7 367 500 366C533.3 365 566.7 369 600 362C633.3 355 666.7 337 700 330C733.3 323 766.7 327 800 332C833.3 337 866.7 343 883.3 346L900 349L900 245L883.3 230C866.7 215 833.3 185 800 173C766.7 161 733.3 167 700 170C666.7 173 633.3 173 600 179C566.7 185 533.3 197 500 199C466.7 201 433.3 193 400 192C366.7 191 333.3 197 300 207C266.7 217 233.3 231 200 221C166.7 211 133.3 177 100 169C66.7 161 33.3 179 16.7 188L0 197Z" fill="#0c49d7"></path><path d="M0 457L16.7 444C33.3 431 66.7 405 100 412C133.3 419 166.7 459 200 470C233.3 481 266.7 463 300 459C333.3 455 366.7 465 400 468C433.3 471 466.7 467 500 458C533.3 449 566.7 435 600 426C633.3 417 666.7 413 700 416C733.3 419 766.7 429 800 429C833.3 429 866.7 419 883.3 414L900 409L900 347L883.3 344C866.7 341 833.3 335 800 330C766.7 325 733.3 321 700 328C666.7 335 633.3 353 600 360C566.7 367 533.3 363 500 364C466.7 365 433.3 371 400 378C366.7 385 333.3 393 300 392C266.7 391 233.3 381 200 368C166.7 355 133.3 339 100 335C66.7 331 33.3 339 16.7 343L0 347Z" fill="#0066ff"></path><path d="M0 505L16.7 514C33.3 523 66.7 541 100 548C133.3 555 166.7 551 200 543C233.3 535 266.7 523 300 520C333.3 517 366.7 523 400 527C433.3 531 466.7 533 500 533C533.3 533 566.7 531 600 534C633.3 537 666.7 545 700 547C733.3 549 766.7 545 800 539C833.3 533 866.7 525 883.3 521L900 517L900 407L883.3 412C866.7 417 833.3 427 800 427C766.7 427 733.3 417 700 414C666.7 411 633.3 415 600 424C566.7 433 533.3 447 500 456C466.7 465 433.3 469 400 466C366.7 463 333.3 453 300 457C266.7 461 233.3 479 200 468C166.7 457 133.3 417 100 410C66.7 403 33.3 429 16.7 442L0 455Z" fill="#0c49d7"></path><path d="M0 601L16.7 601C33.3 601 66.7 601 100 601C133.3 601 166.7 601 200 601C233.3 601 266.7 601 300 601C333.3 601 366.7 601 400 601C433.3 601 466.7 601 500 601C533.3 601 566.7 601 600 601C633.3 601 666.7 601 700 601C733.3 601 766.7 601 800 601C833.3 601 866.7 601 883.3 601L900 601L900 515L883.3 519C866.7 523 833.3 531 800 537C766.7 543 733.3 547 700 545C666.7 543 633.3 535 600 532C566.7 529 533.3 531 500 531C466.7 531 433.3 529 400 525C366.7 521 333.3 515 300 518C266.7 521 233.3 533 200 541C166.7 549 133.3 553 100 546C66.7 539 33.3 521 16.7 512L0 503Z" fill="#001b98"></path></svg>