<svg id="visual" viewBox="0 0 900 600" width="900" height="600" xmlns="http://www.w3.org/2000/svg" xmlns:xlink="http://www.w3.org/1999/xlink" version="1.1"><path d="M0 61L21.5 60C43 59 86 57 128.8 58C171.7 59 214.3 63 257.2 74C300 85 343 103 385.8 116C428.7 129 471.3 137 514.2 127C557 117 600 89 642.8 89C685.7 89 728.3 117 771.2 129C814 141 857 137 878.5 135L900 133L900 0L878.5 0C857 0 814 0 771.2 0C728.3 0 685.7 0 642.8 0C600 0 557 0 514.2 0C471.3 0 428.7 0 385.8 0C343 0 300 0 257.2 0C214.3 0 171.7 0 128.8 0C86 0 43 0 21.5 0L0 0Z" fill="#0066ff"></path><path d="M0 223L21.5 224C43 225 86 227 128.8 223C171.7 219 214.3 209 257.2 221C300 233 343 267 385.8 276C428.7 285 471.3 269 514.2 252C557 235 600 217 642.8 216C685.7 215 728.3 231 771.2 246C814 261 857 275 878.5 282L900 289L900 131L878.5 133C857 135 814 139 771.2 127C728.3 115 685.7 87 642.8 87C600 87 557 115 514.2 125C471.3 135 428.7 127 385.8 114C343 101 300 83 257.2 72C214.3 61 171.7 57 128.8 56C86 55 43 57 21.5 58L0 59Z" fill="#0b53e4"></path><path d="M0 313L21.5 312C43 311 86 309 128.8 306C171.7 303 214.3 299 257.2 311C300 323 343 351 385.8 361C428.7 371 471.3 363 514.2 349C557 335 600 315 642.8 303C685.7 291 728.3 287 771.2 295C814 303 857 323 878.5 333L900 343L900 287L878.5 280C857 273 814 259 771.2 244C728.3 229 685.7 213 642.8 214C600 215 557 233 514.2 250C471.3 267 428.7 283 385.8 274C343 265 300 231 257.2 219C214.3 207 171.7 217 128.8 221C86 225 43 223 21.5 222L0 221Z" fill="#0c40ca"></path><path d="M0 523L21.5 517C43 511 86 499 128.8 498C171.7 497 214.3 507 257.2 507C300 507 343 497 385.8 505C428.7 513 471.3 539 514.2 545C557 551 600 537 642.8 533C685.7 529 728.3 535 771.2 527C814 519 857 497 878.5 486L900 475L900 341L878.5 331C857 321 814 301 771.2 293C728.3 285 685.7 289 642.8 301C600 313 557 333 514.2 347C471.3 361 428.7 369 385.8 359C343 349 300 321 257.2 309C214.3 297 171.7 301 128.8 304C86 307 43 309 21.5 310L0 311Z" fill="#082eb1"></path><path d="M0 601L21.5 601C43 601 86 601 128.8 601C171.7 601 214.3 601 257.2 601C300 601 343 601 385.8 601C428.7 601 471.3 601 514.2 601C557 601 600 601 642.8 601C685.7 601 728.3 601 771.2 601C814 601 857 601 878.5 601L900 601L900 473L878.5 484C857 495 814 517 771.2 525C728.3 533 685.7 527 642.8 531C600 535 557 549 514.2 543C471.3 537 428.7 511 385.8 503C343 495 300 505 257.2 505C214.3 505 171.7 495 128.8 496C86 497 43 509 21.5 515L0 521Z" fill="#001b98"></path></svg>