<svg id="visual" viewBox="0 0 900 600" width="900" height="600" xmlns="http://www.w3.org/2000/svg" xmlns:xlink="http://www.w3.org/1999/xlink" version="1.1"><path d="M0 61L16.7 67C33.3 73 66.7 85 100 94C133.3 103 166.7 109 200 109C233.3 109 266.7 103 300 106C333.3 109 366.7 121 400 120C433.3 119 466.7 105 500 90C533.3 75 566.7 59 600 57C633.3 55 666.7 67 700 76C733.3 85 766.7 91 800 85C833.3 79 866.7 61 883.3 52L900 43L900 0L883.3 0C866.7 0 833.3 0 800 0C766.7 0 733.3 0 700 0C666.7 0 633.3 0 600 0C566.7 0 533.3 0 500 0C466.7 0 433.3 0 400 0C366.7 0 333.3 0 300 0C266.7 0 233.3 0 200 0C166.7 0 133.3 0 100 0C66.7 0 33.3 0 16.7 0L0 0Z" fill="#0066ff"></path><path d="M0 175L16.7 194C33.3 213 66.7 251 100 260C133.3 269 166.7 249 200 240C233.3 231 266.7 233 300 238C333.3 243 366.7 251 400 251C433.3 251 466.7 243 500 229C533.3 215 566.7 195 600 217C633.3 239 666.7 303 700 323C733.3 343 766.7 319 800 292C833.3 265 866.7 235 883.3 220L900 205L900 41L883.3 50C866.7 59 833.3 77 800 83C766.7 89 733.3 83 700 74C666.7 65 633.3 53 600 55C566.7 57 533.3 73 500 88C466.7 103 433.3 117 400 118C366.7 119 333.3 107 300 104C266.7 101 233.3 107 200 107C166.7 107 133.3 101 100 92C66.7 83 33.3 71 16.7 65L0 59Z" fill="#0b53e4"></path><path d="M0 409L16.7 416C33.3 423 66.7 437 100 443C133.3 449 166.7 447 200 443C233.3 439 266.7 433 300 439C333.3 445 366.7 463 400 466C433.3 469 466.7 457 500 446C533.3 435 566.7 425 600 433C633.3 441 666.7 467 700 477C733.3 487 766.7 481 800 464C833.3 447 866.7 419 883.3 405L900 391L900 203L883.3 218C866.7 233 833.3 263 800 290C766.7 317 733.3 341 700 321C666.7 301 633.3 237 600 215C566.7 193 533.3 213 500 227C466.7 241 433.3 249 400 249C366.7 249 333.3 241 300 236C266.7 231 233.3 229 200 238C166.7 247 133.3 267 100 258C66.7 249 33.3 211 16.7 192L0 173Z" fill="#0c40ca"></path><path d="M0 463L16.7 472C33.3 481 66.7 499 100 513C133.3 527 166.7 537 200 528C233.3 519 266.7 491 300 488C333.3 485 366.7 507 400 513C433.3 519 466.7 509 500 505C533.3 501 566.7 503 600 510C633.3 517 666.7 529 700 532C733.3 535 766.7 529 800 512C833.3 495 866.7 467 883.3 453L900 439L900 389L883.3 403C866.7 417 833.3 445 800 462C766.7 479 733.3 485 700 475C666.7 465 633.3 439 600 431C566.7 423 533.3 433 500 444C466.7 455 433.3 467 400 464C366.7 461 333.3 443 300 437C266.7 431 233.3 437 200 441C166.7 445 133.3 447 100 441C66.7 435 33.3 421 16.7 414L0 407Z" fill="#082eb1"></path><path d="M0 601L16.7 601C33.3 601 66.7 601 100 601C133.3 601 166.7 601 200 601C233.3 601 266.7 601 300 601C333.3 601 366.7 601 400 601C433.3 601 466.7 601 500 601C533.3 601 566.7 601 600 601C633.3 601 666.7 601 700 601C733.3 601 766.7 601 800 601C833.3 601 866.7 601 883.3 601L900 601L900 437L883.3 451C866.7 465 833.3 493 800 510C766.7 527 733.3 533 700 530C666.7 527 633.3 515 600 508C566.7 501 533.3 499 500 503C466.7 507 433.3 517 400 511C366.7 505 333.3 483 300 486C266.7 489 233.3 517 200 526C166.7 535 133.3 525 100 511C66.7 497 33.3 479 16.7 470L0 461Z" fill="#001b98"></path></svg>