<svg id="visual" viewBox="0 0 900 600" width="900" height="600" xmlns="http://www.w3.org/2000/svg" xmlns:xlink="http://www.w3.org/1999/xlink" version="1.1"><path d="M0 133L13.7 124C27.3 115 54.7 97 82 84C109.3 71 136.7 63 163.8 76C191 89 218 123 245.2 131C272.3 139 299.7 121 327 120C354.3 119 381.7 135 409 130C436.3 125 463.7 99 491 97C518.3 95 545.7 117 573 113C600.3 109 627.7 79 654.8 79C682 79 709 109 736.2 117C763.3 125 790.7 111 818 96C845.3 81 872.7 65 886.3 57L900 49L900 0L886.3 0C872.7 0 845.3 0 818 0C790.7 0 763.3 0 736.2 0C709 0 682 0 654.8 0C627.7 0 600.3 0 573 0C545.7 0 518.3 0 491 0C463.7 0 436.3 0 409 0C381.7 0 354.3 0 327 0C299.7 0 272.3 0 245.2 0C218 0 191 0 163.8 0C136.7 0 109.3 0 82 0C54.7 0 27.3 0 13.7 0L0 0Z" fill="#0066ff"></path><path d="M0 295L13.7 297C27.3 299 54.7 303 82 301C109.3 299 136.7 291 163.8 292C191 293 218 303 245.2 288C272.3 273 299.7 233 327 222C354.3 211 381.7 229 409 241C436.3 253 463.7 259 491 255C518.3 251 545.7 237 573 226C600.3 215 627.7 207 654.8 225C682 243 709 287 736.2 299C763.3 311 790.7 291 818 268C845.3 245 872.7 219 886.3 206L900 193L900 47L886.3 55C872.7 63 845.3 79 818 94C790.7 109 763.3 123 736.2 115C709 107 682 77 654.8 77C627.7 77 600.3 107 573 111C545.7 115 518.3 93 491 95C463.7 97 436.3 123 409 128C381.7 133 354.3 117 327 118C299.7 119 272.3 137 245.2 129C218 121 191 87 163.8 74C136.7 61 109.3 69 82 82C54.7 95 27.3 113 13.7 122L0 131Z" fill="#0b53e4"></path><path d="M0 445L13.7 444C27.3 443 54.7 441 82 440C109.3 439 136.7 439 163.8 439C191 439 218 439 245.2 435C272.3 431 299.7 423 327 420C354.3 417 381.7 419 409 421C436.3 423 463.7 425 491 429C518.3 433 545.7 439 573 435C600.3 431 627.7 417 654.8 414C682 411 709 419 736.2 427C763.3 435 790.7 443 818 443C845.3 443 872.7 435 886.3 431L900 427L900 191L886.3 204C872.7 217 845.3 243 818 266C790.7 289 763.3 309 736.2 297C709 285 682 241 654.8 223C627.7 205 600.3 213 573 224C545.7 235 518.3 249 491 253C463.7 257 436.3 251 409 239C381.7 227 354.3 209 327 220C299.7 231 272.3 271 245.2 286C218 301 191 291 163.8 290C136.7 289 109.3 297 82 299C54.7 301 27.3 297 13.7 295L0 293Z" fill="#0c40ca"></path><path d="M0 481L13.7 483C27.3 485 54.7 489 82 496C109.3 503 136.7 513 163.8 520C191 527 218 531 245.2 530C272.3 529 299.7 523 327 516C354.3 509 381.7 501 409 501C436.3 501 463.7 509 491 509C518.3 509 545.7 501 573 497C600.3 493 627.7 493 654.8 491C682 489 709 485 736.2 494C763.3 503 790.7 525 818 533C845.3 541 872.7 535 886.3 532L900 529L900 425L886.3 429C872.7 433 845.3 441 818 441C790.7 441 763.3 433 736.2 425C709 417 682 409 654.8 412C627.7 415 600.3 429 573 433C545.7 437 518.3 431 491 427C463.7 423 436.3 421 409 419C381.7 417 354.3 415 327 418C299.7 421 272.3 429 245.2 433C218 437 191 437 163.8 437C136.7 437 109.3 437 82 438C54.7 439 27.3 441 13.7 442L0 443Z" fill="#082eb1"></path><path d="M0 601L13.7 601C27.3 601 54.7 601 82 601C109.3 601 136.7 601 163.8 601C191 601 218 601 245.2 601C272.3 601 299.7 601 327 601C354.3 601 381.7 601 409 601C436.3 601 463.7 601 491 601C518.3 601 545.7 601 573 601C600.3 601 627.7 601 654.8 601C682 601 709 601 736.2 601C763.3 601 790.7 601 818 601C845.3 601 872.7 601 886.3 601L900 601L900 527L886.3 530C872.7 533 845.3 539 818 531C790.7 523 763.3 501 736.2 492C709 483 682 487 654.8 489C627.7 491 600.3 491 573 495C545.7 499 518.3 507 491 507C463.7 507 436.3 499 409 499C381.7 499 354.3 507 327 514C299.7 521 272.3 527 245.2 528C218 529 191 525 163.8 518C136.7 511 109.3 501 82 494C54.7 487 27.3 483 13.7 481L0 479Z" fill="#001b98"></path></svg>