<svg id="visual" viewBox="0 0 900 600" width="900" height="600" xmlns="http://www.w3.org/2000/svg" xmlns:xlink="http://www.w3.org/1999/xlink" version="1.1"><path d="M0 67L21.5 74C43 81 86 95 128.8 94C171.7 93 214.3 77 257.2 77C300 77 343 93 385.8 103C428.7 113 471.3 117 514.2 106C557 95 600 69 642.8 57C685.7 45 728.3 47 771.2 51C814 55 857 61 878.5 64L900 67L900 0L878.5 0C857 0 814 0 771.2 0C728.3 0 685.7 0 642.8 0C600 0 557 0 514.2 0C471.3 0 428.7 0 385.8 0C343 0 300 0 257.2 0C214.3 0 171.7 0 128.8 0C86 0 43 0 21.5 0L0 0Z" fill="#0066ff"></path><path d="M0 175L21.5 196C43 217 86 259 128.8 256C171.7 253 214.3 205 257.2 192C300 179 343 201 385.8 209C428.7 217 471.3 211 514.2 219C557 227 600 249 642.8 264C685.7 279 728.3 287 771.2 274C814 261 857 227 878.5 210L900 193L900 65L878.5 62C857 59 814 53 771.2 49C728.3 45 685.7 43 642.8 55C600 67 557 93 514.2 104C471.3 115 428.7 111 385.8 101C343 91 300 75 257.2 75C214.3 75 171.7 91 128.8 92C86 93 43 79 21.5 72L0 65Z" fill="#0b53e4"></path><path d="M0 481L21.5 465C43 449 86 417 128.8 414C171.7 411 214.3 437 257.2 443C300 449 343 435 385.8 426C428.7 417 471.3 413 514.2 413C557 413 600 417 642.8 417C685.7 417 728.3 413 771.2 410C814 407 857 405 878.5 404L900 403L900 191L878.5 208C857 225 814 259 771.2 272C728.3 285 685.7 277 642.8 262C600 247 557 225 514.2 217C471.3 209 428.7 215 385.8 207C343 199 300 177 257.2 190C214.3 203 171.7 251 128.8 254C86 257 43 215 21.5 194L0 173Z" fill="#0c40ca"></path><path d="M0 565L21.5 558C43 551 86 537 128.8 530C171.7 523 214.3 523 257.2 523C300 523 343 523 385.8 528C428.7 533 471.3 543 514.2 542C557 541 600 529 642.8 528C685.7 527 728.3 537 771.2 536C814 535 857 523 878.5 517L900 511L900 401L878.5 402C857 403 814 405 771.2 408C728.3 411 685.7 415 642.8 415C600 415 557 411 514.2 411C471.3 411 428.7 415 385.8 424C343 433 300 447 257.2 441C214.3 435 171.7 409 128.8 412C86 415 43 447 21.5 463L0 479Z" fill="#082eb1"></path><path d="M0 601L21.5 601C43 601 86 601 128.8 601C171.7 601 214.3 601 257.2 601C300 601 343 601 385.8 601C428.7 601 471.3 601 514.2 601C557 601 600 601 642.8 601C685.7 601 728.3 601 771.2 601C814 601 857 601 878.5 601L900 601L900 509L878.5 515C857 521 814 533 771.2 534C728.3 535 685.7 525 642.8 526C600 527 557 539 514.2 540C471.3 541 428.7 531 385.8 526C343 521 300 521 257.2 521C214.3 521 171.7 521 128.8 528C86 535 43 549 21.5 556L0 563Z" fill="#001b98"></path></svg>