<svg id="visual" viewBox="0 0 900 600" width="900" height="600" xmlns="http://www.w3.org/2000/svg" xmlns:xlink="http://www.w3.org/1999/xlink" version="1.1"><path d="M0 73L21.5 74C43 75 86 77 128.8 77C171.7 77 214.3 75 257.2 71C300 67 343 61 385.8 65C428.7 69 471.3 83 514.2 84C557 85 600 73 642.8 71C685.7 69 728.3 77 771.2 95C814 113 857 141 878.5 155L900 169L900 0L878.5 0C857 0 814 0 771.2 0C728.3 0 685.7 0 642.8 0C600 0 557 0 514.2 0C471.3 0 428.7 0 385.8 0C343 0 300 0 257.2 0C214.3 0 171.7 0 128.8 0C86 0 43 0 21.5 0L0 0Z" fill="#0066ff"></path><path d="M0 325L21.5 317C43 309 86 293 128.8 291C171.7 289 214.3 301 257.2 289C300 277 343 241 385.8 236C428.7 231 471.3 257 514.2 255C557 253 600 223 642.8 219C685.7 215 728.3 237 771.2 257C814 277 857 295 878.5 304L900 313L900 167L878.5 153C857 139 814 111 771.2 93C728.3 75 685.7 67 642.8 69C600 71 557 83 514.2 82C471.3 81 428.7 67 385.8 63C343 59 300 65 257.2 69C214.3 73 171.7 75 128.8 75C86 75 43 73 21.5 72L0 71Z" fill="#0b53e4"></path><path d="M0 415L21.5 407C43 399 86 383 128.8 379C171.7 375 214.3 383 257.2 366C300 349 343 307 385.8 298C428.7 289 471.3 313 514.2 321C557 329 600 321 642.8 322C685.7 323 728.3 333 771.2 340C814 347 857 351 878.5 353L900 355L900 311L878.5 302C857 293 814 275 771.2 255C728.3 235 685.7 213 642.8 217C600 221 557 251 514.2 253C471.3 255 428.7 229 385.8 234C343 239 300 275 257.2 287C214.3 299 171.7 287 128.8 289C86 291 43 307 21.5 315L0 323Z" fill="#0c40ca"></path><path d="M0 541L21.5 544C43 547 86 553 128.8 552C171.7 551 214.3 543 257.2 533C300 523 343 511 385.8 507C428.7 503 471.3 507 514.2 508C557 509 600 507 642.8 509C685.7 511 728.3 517 771.2 520C814 523 857 523 878.5 523L900 523L900 353L878.5 351C857 349 814 345 771.2 338C728.3 331 685.7 321 642.8 320C600 319 557 327 514.2 319C471.3 311 428.7 287 385.8 296C343 305 300 347 257.2 364C214.3 381 171.7 373 128.8 377C86 381 43 397 21.5 405L0 413Z" fill="#082eb1"></path><path d="M0 601L21.5 601C43 601 86 601 128.8 601C171.7 601 214.3 601 257.2 601C300 601 343 601 385.8 601C428.7 601 471.3 601 514.2 601C557 601 600 601 642.8 601C685.7 601 728.3 601 771.2 601C814 601 857 601 878.5 601L900 601L900 521L878.5 521C857 521 814 521 771.2 518C728.3 515 685.7 509 642.8 507C600 505 557 507 514.2 506C471.3 505 428.7 501 385.8 505C343 509 300 521 257.2 531C214.3 541 171.7 549 128.8 550C86 551 43 545 21.5 542L0 539Z" fill="#001b98"></path></svg>