<svg id="visual" viewBox="0 0 900 600" width="900" height="600" xmlns="http://www.w3.org/2000/svg" xmlns:xlink="http://www.w3.org/1999/xlink" version="1.1"><path d="M0 295L16.7 282C33.3 269 66.7 243 100 212C133.3 181 166.7 145 200 124C233.3 103 266.7 97 300 114C333.3 131 366.7 171 400 194C433.3 217 466.7 223 500 216C533.3 209 566.7 189 600 193C633.3 197 666.7 225 700 222C733.3 219 766.7 185 800 169C833.3 153 866.7 155 883.3 156L900 157L900 0L883.3 0C866.7 0 833.3 0 800 0C766.7 0 733.3 0 700 0C666.7 0 633.3 0 600 0C566.7 0 533.3 0 500 0C466.7 0 433.3 0 400 0C366.7 0 333.3 0 300 0C266.7 0 233.3 0 200 0C166.7 0 133.3 0 100 0C66.7 0 33.3 0 16.7 0L0 0Z" fill="#0066ff"></path><path d="M0 397L16.7 386C33.3 375 66.7 353 100 335C133.3 317 166.7 303 200 299C233.3 295 266.7 301 300 313C333.3 325 366.7 343 400 343C433.3 343 466.7 325 500 323C533.3 321 566.7 335 600 344C633.3 353 666.7 357 700 354C733.3 351 766.7 341 800 340C833.3 339 866.7 347 883.3 351L900 355L900 155L883.3 154C866.7 153 833.3 151 800 167C766.7 183 733.3 217 700 220C666.7 223 633.3 195 600 191C566.7 187 533.3 207 500 214C466.7 221 433.3 215 400 192C366.7 169 333.3 129 300 112C266.7 95 233.3 101 200 122C166.7 143 133.3 179 100 210C66.7 241 33.3 267 16.7 280L0 293Z" fill="#0b53e4"></path><path d="M0 481L16.7 465C33.3 449 66.7 417 100 409C133.3 401 166.7 417 200 433C233.3 449 266.7 465 300 461C333.3 457 366.7 433 400 423C433.3 413 466.7 417 500 415C533.3 413 566.7 405 600 417C633.3 429 666.7 461 700 468C733.3 475 766.7 457 800 459C833.3 461 866.7 483 883.3 494L900 505L900 353L883.3 349C866.7 345 833.3 337 800 338C766.7 339 733.3 349 700 352C666.7 355 633.3 351 600 342C566.7 333 533.3 319 500 321C466.7 323 433.3 341 400 341C366.7 341 333.3 323 300 311C266.7 299 233.3 293 200 297C166.7 301 133.3 315 100 333C66.7 351 33.3 373 16.7 384L0 395Z" fill="#0c40ca"></path><path d="M0 535L16.7 527C33.3 519 66.7 503 100 501C133.3 499 166.7 511 200 523C233.3 535 266.7 547 300 545C333.3 543 366.7 527 400 520C433.3 513 466.7 515 500 511C533.3 507 566.7 497 600 500C633.3 503 666.7 519 700 525C733.3 531 766.7 527 800 529C833.3 531 866.7 539 883.3 543L900 547L900 503L883.3 492C866.7 481 833.3 459 800 457C766.7 455 733.3 473 700 466C666.7 459 633.3 427 600 415C566.7 403 533.3 411 500 413C466.7 415 433.3 411 400 421C366.7 431 333.3 455 300 459C266.7 463 233.3 447 200 431C166.7 415 133.3 399 100 407C66.7 415 33.3 447 16.7 463L0 479Z" fill="#082eb1"></path><path d="M0 601L16.7 601C33.3 601 66.7 601 100 601C133.3 601 166.7 601 200 601C233.3 601 266.7 601 300 601C333.3 601 366.7 601 400 601C433.3 601 466.7 601 500 601C533.3 601 566.7 601 600 601C633.3 601 666.7 601 700 601C733.3 601 766.7 601 800 601C833.3 601 866.7 601 883.3 601L900 601L900 545L883.3 541C866.7 537 833.3 529 800 527C766.7 525 733.3 529 700 523C666.7 517 633.3 501 600 498C566.7 495 533.3 505 500 509C466.7 513 433.3 511 400 518C366.7 525 333.3 541 300 543C266.7 545 233.3 533 200 521C166.7 509 133.3 497 100 499C66.7 501 33.3 517 16.7 525L0 533Z" fill="#001b98"></path></svg>