<svg id="visual" viewBox="0 0 900 600" width="900" height="600" xmlns="http://www.w3.org/2000/svg" xmlns:xlink="http://www.w3.org/1999/xlink" version="1.1"><path d="M0 91L13.7 83C27.3 75 54.7 59 82 60C109.3 61 136.7 79 163.8 83C191 87 218 77 245.2 73C272.3 69 299.7 71 327 74C354.3 77 381.7 81 409 78C436.3 75 463.7 65 491 68C518.3 71 545.7 87 573 87C600.3 87 627.7 71 654.8 60C682 49 709 43 736.2 40C763.3 37 790.7 37 818 44C845.3 51 872.7 65 886.3 72L900 79L900 0L886.3 0C872.7 0 845.3 0 818 0C790.7 0 763.3 0 736.2 0C709 0 682 0 654.8 0C627.7 0 600.3 0 573 0C545.7 0 518.3 0 491 0C463.7 0 436.3 0 409 0C381.7 0 354.3 0 327 0C299.7 0 272.3 0 245.2 0C218 0 191 0 163.8 0C136.7 0 109.3 0 82 0C54.7 0 27.3 0 13.7 0L0 0Z" fill="#0066ff"></path><path d="M0 289L13.7 288C27.3 287 54.7 285 82 264C109.3 243 136.7 203 163.8 197C191 191 218 219 245.2 232C272.3 245 299.7 243 327 256C354.3 269 381.7 297 409 306C436.3 315 463.7 305 491 285C518.3 265 545.7 235 573 228C600.3 221 627.7 237 654.8 224C682 211 709 169 736.2 173C763.3 177 790.7 227 818 241C845.3 255 872.7 233 886.3 222L900 211L900 77L886.3 70C872.7 63 845.3 49 818 42C790.7 35 763.3 35 736.2 38C709 41 682 47 654.8 58C627.7 69 600.3 85 573 85C545.7 85 518.3 69 491 66C463.7 63 436.3 73 409 76C381.7 79 354.3 75 327 72C299.7 69 272.3 67 245.2 71C218 75 191 85 163.8 81C136.7 77 109.3 59 82 58C54.7 57 27.3 73 13.7 81L0 89Z" fill="#0b53e4"></path><path d="M0 385L13.7 375C27.3 365 54.7 345 82 320C109.3 295 136.7 265 163.8 262C191 259 218 283 245.2 292C272.3 301 299.7 295 327 318C354.3 341 381.7 393 409 407C436.3 421 463.7 397 491 374C518.3 351 545.7 329 573 324C600.3 319 627.7 331 654.8 316C682 301 709 259 736.2 263C763.3 267 790.7 317 818 329C845.3 341 872.7 315 886.3 302L900 289L900 209L886.3 220C872.7 231 845.3 253 818 239C790.7 225 763.3 175 736.2 171C709 167 682 209 654.8 222C627.7 235 600.3 219 573 226C545.7 233 518.3 263 491 283C463.7 303 436.3 313 409 304C381.7 295 354.3 267 327 254C299.7 241 272.3 243 245.2 230C218 217 191 189 163.8 195C136.7 201 109.3 241 82 262C54.7 283 27.3 285 13.7 286L0 287Z" fill="#0c40ca"></path><path d="M0 511L13.7 500C27.3 489 54.7 467 82 447C109.3 427 136.7 409 163.8 413C191 417 218 443 245.2 446C272.3 449 299.7 429 327 435C354.3 441 381.7 473 409 485C436.3 497 463.7 489 491 473C518.3 457 545.7 433 573 431C600.3 429 627.7 449 654.8 437C682 425 709 381 736.2 379C763.3 377 790.7 417 818 433C845.3 449 872.7 441 886.3 437L900 433L900 287L886.3 300C872.7 313 845.3 339 818 327C790.7 315 763.3 265 736.2 261C709 257 682 299 654.8 314C627.7 329 600.3 317 573 322C545.7 327 518.3 349 491 372C463.7 395 436.3 419 409 405C381.7 391 354.3 339 327 316C299.7 293 272.3 299 245.2 290C218 281 191 257 163.8 260C136.7 263 109.3 293 82 318C54.7 343 27.3 363 13.7 373L0 383Z" fill="#082eb1"></path><path d="M0 601L13.7 601C27.3 601 54.7 601 82 601C109.3 601 136.7 601 163.8 601C191 601 218 601 245.2 601C272.3 601 299.7 601 327 601C354.3 601 381.7 601 409 601C436.3 601 463.7 601 491 601C518.3 601 545.7 601 573 601C600.3 601 627.7 601 654.8 601C682 601 709 601 736.2 601C763.3 601 790.7 601 818 601C845.3 601 872.7 601 886.3 601L900 601L900 431L886.3 435C872.7 439 845.3 447 818 431C790.7 415 763.3 375 736.2 377C709 379 682 423 654.8 435C627.7 447 600.3 427 573 429C545.7 431 518.3 455 491 471C463.7 487 436.3 495 409 483C381.7 471 354.3 439 327 433C299.7 427 272.3 447 245.2 444C218 441 191 415 163.8 411C136.7 407 109.3 425 82 445C54.7 465 27.3 487 13.7 498L0 509Z" fill="#001b98"></path></svg>