<svg id="visual" viewBox="0 0 900 600" width="900" height="600" xmlns="http://www.w3.org/2000/svg" xmlns:xlink="http://www.w3.org/1999/xlink" version="1.1"><path d="M0 97L16.7 95C33.3 93 66.7 89 100 83C133.3 77 166.7 69 200 63C233.3 57 266.7 53 300 59C333.3 65 366.7 81 400 85C433.3 89 466.7 81 500 81C533.3 81 566.7 89 600 88C633.3 87 666.7 77 700 78C733.3 79 766.7 91 800 89C833.3 87 866.7 71 883.3 63L900 55L900 0L883.3 0C866.7 0 833.3 0 800 0C766.7 0 733.3 0 700 0C666.7 0 633.3 0 600 0C566.7 0 533.3 0 500 0C466.7 0 433.3 0 400 0C366.7 0 333.3 0 300 0C266.7 0 233.3 0 200 0C166.7 0 133.3 0 100 0C66.7 0 33.3 0 16.7 0L0 0Z" fill="#001b98"></path><path d="M0 367L16.7 348C33.3 329 66.7 291 100 266C133.3 241 166.7 229 200 212C233.3 195 266.7 173 300 180C333.3 187 366.7 223 400 257C433.3 291 466.7 323 500 332C533.3 341 566.7 327 600 310C633.3 293 666.7 273 700 255C733.3 237 766.7 221 800 227C833.3 233 866.7 261 883.3 275L900 289L900 53L883.3 61C866.7 69 833.3 85 800 87C766.7 89 733.3 77 700 76C666.7 75 633.3 85 600 86C566.7 87 533.3 79 500 79C466.7 79 433.3 87 400 83C366.7 79 333.3 63 300 57C266.7 51 233.3 55 200 61C166.7 67 133.3 75 100 81C66.7 87 33.3 91 16.7 93L0 95Z" fill="#0c49d7"></path><path d="M0 445L16.7 419C33.3 393 66.7 341 100 314C133.3 287 166.7 285 200 271C233.3 257 266.7 231 300 233C333.3 235 366.7 265 400 304C433.3 343 466.7 391 500 405C533.3 419 566.7 399 600 382C633.3 365 666.7 351 700 339C733.3 327 766.7 317 800 322C833.3 327 866.7 347 883.3 357L900 367L900 287L883.3 273C866.7 259 833.3 231 800 225C766.7 219 733.3 235 700 253C666.7 271 633.3 291 600 308C566.7 325 533.3 339 500 330C466.7 321 433.3 289 400 255C366.7 221 333.3 185 300 178C266.7 171 233.3 193 200 210C166.7 227 133.3 239 100 264C66.7 289 33.3 327 16.7 346L0 365Z" fill="#0066ff"></path><path d="M0 499L16.7 487C33.3 475 66.7 451 100 439C133.3 427 166.7 427 200 420C233.3 413 266.7 399 300 394C333.3 389 366.7 393 400 412C433.3 431 466.7 465 500 476C533.3 487 566.7 475 600 460C633.3 445 666.7 427 700 409C733.3 391 766.7 373 800 375C833.3 377 866.7 399 883.3 410L900 421L900 365L883.3 355C866.7 345 833.3 325 800 320C766.7 315 733.3 325 700 337C666.7 349 633.3 363 600 380C566.7 397 533.3 417 500 403C466.7 389 433.3 341 400 302C366.7 263 333.3 233 300 231C266.7 229 233.3 255 200 269C166.7 283 133.3 285 100 312C66.7 339 33.3 391 16.7 417L0 443Z" fill="#0c49d7"></path><path d="M0 601L16.7 601C33.3 601 66.7 601 100 601C133.3 601 166.7 601 200 601C233.3 601 266.7 601 300 601C333.3 601 366.7 601 400 601C433.3 601 466.7 601 500 601C533.3 601 566.7 601 600 601C633.3 601 666.7 601 700 601C733.3 601 766.7 601 800 601C833.3 601 866.7 601 883.3 601L900 601L900 419L883.3 408C866.7 397 833.3 375 800 373C766.7 371 733.3 389 700 407C666.7 425 633.3 443 600 458C566.7 473 533.3 485 500 474C466.7 463 433.3 429 400 410C366.7 391 333.3 387 300 392C266.7 397 233.3 411 200 418C166.7 425 133.3 425 100 437C66.7 449 33.3 473 16.7 485L0 497Z" fill="#001b98"></path></svg>