<svg id="visual" viewBox="0 0 900 600" width="900" height="600" xmlns="http://www.w3.org/2000/svg" xmlns:xlink="http://www.w3.org/1999/xlink" version="1.1"><path d="M0 205L16.7 207C33.3 209 66.7 213 100 211C133.3 209 166.7 201 200 211C233.3 221 266.7 249 300 247C333.3 245 366.7 213 400 186C433.3 159 466.7 137 500 132C533.3 127 566.7 139 600 136C633.3 133 666.7 115 700 106C733.3 97 766.7 97 800 109C833.3 121 866.7 145 883.3 157L900 169L900 0L883.3 0C866.7 0 833.3 0 800 0C766.7 0 733.3 0 700 0C666.7 0 633.3 0 600 0C566.7 0 533.3 0 500 0C466.7 0 433.3 0 400 0C366.7 0 333.3 0 300 0C266.7 0 233.3 0 200 0C166.7 0 133.3 0 100 0C66.7 0 33.3 0 16.7 0L0 0Z" fill="#001b98"></path><path d="M0 289L16.7 286C33.3 283 66.7 277 100 287C133.3 297 166.7 323 200 335C233.3 347 266.7 345 300 335C333.3 325 366.7 307 400 284C433.3 261 466.7 233 500 227C533.3 221 566.7 237 600 239C633.3 241 666.7 229 700 221C733.3 213 766.7 209 800 226C833.3 243 866.7 281 883.3 300L900 319L900 167L883.3 155C866.7 143 833.3 119 800 107C766.7 95 733.3 95 700 104C666.7 113 633.3 131 600 134C566.7 137 533.3 125 500 130C466.7 135 433.3 157 400 184C366.7 211 333.3 243 300 245C266.7 247 233.3 219 200 209C166.7 199 133.3 207 100 209C66.7 211 33.3 207 16.7 205L0 203Z" fill="#082eb1"></path><path d="M0 379L16.7 377C33.3 375 66.7 371 100 372C133.3 373 166.7 379 200 390C233.3 401 266.7 417 300 414C333.3 411 366.7 389 400 359C433.3 329 466.7 291 500 280C533.3 269 566.7 285 600 294C633.3 303 666.7 305 700 303C733.3 301 766.7 295 800 308C833.3 321 866.7 353 883.3 369L900 385L900 317L883.3 298C866.7 279 833.3 241 800 224C766.7 207 733.3 211 700 219C666.7 227 633.3 239 600 237C566.7 235 533.3 219 500 225C466.7 231 433.3 259 400 282C366.7 305 333.3 323 300 333C266.7 343 233.3 345 200 333C166.7 321 133.3 295 100 285C66.7 275 33.3 281 16.7 284L0 287Z" fill="#0c40ca"></path><path d="M0 481L16.7 469C33.3 457 66.7 433 100 432C133.3 431 166.7 453 200 470C233.3 487 266.7 499 300 497C333.3 495 366.7 479 400 447C433.3 415 466.7 367 500 360C533.3 353 566.7 387 600 405C633.3 423 666.7 425 700 417C733.3 409 766.7 391 800 396C833.3 401 866.7 429 883.3 443L900 457L900 383L883.3 367C866.7 351 833.3 319 800 306C766.7 293 733.3 299 700 301C666.7 303 633.3 301 600 292C566.7 283 533.3 267 500 278C466.7 289 433.3 327 400 357C366.7 387 333.3 409 300 412C266.7 415 233.3 399 200 388C166.7 377 133.3 371 100 370C66.7 369 33.3 373 16.7 375L0 377Z" fill="#0b53e4"></path><path d="M0 601L16.7 601C33.3 601 66.7 601 100 601C133.3 601 166.7 601 200 601C233.3 601 266.7 601 300 601C333.3 601 366.7 601 400 601C433.3 601 466.7 601 500 601C533.3 601 566.7 601 600 601C633.3 601 666.7 601 700 601C733.3 601 766.7 601 800 601C833.3 601 866.7 601 883.3 601L900 601L900 455L883.3 441C866.7 427 833.3 399 800 394C766.7 389 733.3 407 700 415C666.7 423 633.3 421 600 403C566.7 385 533.3 351 500 358C466.7 365 433.3 413 400 445C366.7 477 333.3 493 300 495C266.7 497 233.3 485 200 468C166.7 451 133.3 429 100 430C66.7 431 33.3 455 16.7 467L0 479Z" fill="#0066ff"></path></svg>