<svg viewBox="0 0 93 91" version="1.1" xmlns="http://www.w3.org/2000/svg" xmlns:xlink="http://www.w3.org/1999/xlink">
    <g id="K8S" stroke="none" stroke-width="1" fill="none" fill-rule="evenodd">
        <g id="编组" transform="translate(3.000000, 3.000000)" fill-rule="nonzero">
            <path d="M79.7974358,18.8 C79.2974358,17.2 78.0974358,15.9 76.5974358,15.1 L46.0974358,0.5 C45.2974358,0.1 44.3974358,0 43.5974358,0 C42.7974358,0 41.8974358,0 41.0974358,0.2 L10.5974358,14.9 C9.09743584,15.6 7.99743584,16.9 7.59743584,18.6 L0.0974358448,51.5 C-0.202564155,53.2 0.197435845,54.9 1.19743584,56.3 L22.2974358,82.4 C23.4974358,83.6 25.1974358,84.4 26.8974358,84.5 L60.4974358,84.5 C62.2974358,84.7 63.9974358,83.9 65.0974358,82.4 L86.1974358,56.3 C87.1974358,54.9 87.5974358,53.2 87.3974358,51.5 L79.7974358,18.8 Z" id="路径" stroke="#FFFFFF" stroke-width="5" fill="#FFFFFF"></path>
            <path d="M79.7974358,18.8 C79.2974358,17.2 78.0974358,15.9 76.5974358,15.1 L46.0974358,0.5 C45.2974358,0.1 44.3974358,0 43.5974358,0 C42.7974358,0 41.8974358,0 41.0974358,0.2 L10.5974358,14.9 C9.09743584,15.6 7.99743584,16.9 7.59743584,18.6 L0.0974358448,51.5 C-0.202564155,53.2 0.197435845,54.9 1.19743584,56.3 L22.2974358,82.4 C23.4974358,83.6 25.1974358,84.4 26.8974358,84.5 L60.4974358,84.5 C62.2974358,84.7 63.9974358,83.9 65.0974358,82.4 L86.1974358,56.3 C87.1974358,54.9 87.5974358,53.2 87.3974358,51.5 L79.7974358,18.8 Z" id="路径" fill="#326DE6"></path>
            <path d="M75.0974358,50.2 C74.9974358,50.2 74.8974358,50.2 74.8974358,50.1 C74.8974358,50 74.6974358,50 74.4974358,50 C74.0974358,49.9 73.6974358,49.9 73.2974358,49.9 C73.0974358,49.9 72.8974358,49.9 72.6974358,49.8 L72.5974358,49.8 C71.4974358,49.7 70.2974358,49.5 69.1974358,49.2 C68.8974358,49.1 68.5974358,48.8 68.4974358,48.5 C68.5974358,48.5 68.4974358,48.5 68.4974358,48.5 L67.6974358,48.3 C68.0974358,45.4 67.8974358,42.4 67.2974358,39.5 C66.5974358,36.6 65.3974358,33.8 63.7974358,31.3 L64.3974358,30.7 L64.3974358,30.6 C64.3974358,30.3 64.4974358,29.9 64.6974358,29.7 C65.5974358,28.9 66.4974358,28.3 67.4974358,27.7 L68.0974358,27.4 C68.4974358,27.2 68.7974358,27 69.1974358,26.8 C69.2974358,26.7 69.3974358,26.7 69.4974358,26.6 C69.5974358,26.5 69.4974358,26.5 69.4974358,26.4 C70.3974358,25.7 70.5974358,24.5 69.8974358,23.6 C69.5974358,23.2 68.9974358,22.9 68.4974358,22.9 C67.9974358,22.9 67.4974358,23.1 67.0974358,23.4 L66.9974358,23.5 C66.8974358,23.6 66.7974358,23.7 66.6974358,23.7 C66.3974358,24 66.0974358,24.3 65.8974358,24.6 C65.7974358,24.8 65.5974358,24.9 65.4974358,25 C64.7974358,25.8 63.8974358,26.6 62.9974358,27.2 C62.7974358,27.3 62.5974358,27.4 62.3974358,27.4 C62.2974358,27.4 62.0974358,27.4 61.9974358,27.3 L61.8974358,27.3 L61.0974358,27.8 C60.2974358,27 59.3974358,26.2 58.5974358,25.4 C54.8974358,22.5 50.2974358,20.7 45.5974358,20.2 L45.4974358,19.4 L45.4974358,19.5 C45.1974358,19.3 45.0974358,19 44.9974358,18.7 C44.9974358,17.6 44.9974358,16.5 45.1974358,15.3 L45.1974358,15.2 C45.1974358,15 45.2974358,14.8 45.2974358,14.6 C45.3974358,14.2 45.3974358,13.8 45.4974358,13.4 L45.4974358,12.8 C45.5974358,11.8 44.7974358,10.8 43.7974358,10.7 C43.1974358,10.6 42.5974358,10.9 42.0974358,11.4 C41.6974358,11.8 41.4974358,12.3 41.4974358,12.8 L41.4974358,13.3 C41.4974358,13.7 41.5974358,14.1 41.6974358,14.5 C41.7974358,14.7 41.7974358,14.9 41.7974358,15.1 L41.7974358,15.2 C41.9974358,16.3 41.9974358,17.4 41.9974358,18.6 C41.8974358,18.9 41.7974358,19.2 41.4974358,19.4 L41.4974358,19.6 L41.3974358,20.4 C40.2974358,20.5 39.1974358,20.7 37.9974358,20.9 C33.2974358,21.9 28.9974358,24.4 25.6974358,27.9 L25.0974358,27.5 L24.9974358,27.5 C24.8974358,27.5 24.7974358,27.6 24.5974358,27.6 C24.3974358,27.6 24.1974358,27.5 23.9974358,27.4 C23.0974358,26.7 22.1974358,25.9 21.4974358,25.1 C21.3974358,24.9 21.1974358,24.8 21.0974358,24.7 C20.7974358,24.4 20.5974358,24.1 20.2974358,23.8 C20.1974358,23.7 20.0974358,23.7 19.9974358,23.6 L19.8974358,23.5 C19.4974358,23.2 18.9974358,23 18.4974358,23 C17.8974358,23 17.3974358,23.2 17.0974358,23.7 C16.4974358,24.6 16.6974358,25.8 17.4974358,26.5 C17.5974358,26.5 17.5974358,26.6 17.5974358,26.6 C17.5974358,26.6 17.7974358,26.8 17.8974358,26.8 C18.1974358,27 18.5974358,27.2 18.9974358,27.4 L19.5974358,27.7 C20.5974358,28.3 21.5974358,28.9 22.3974358,29.7 C22.5974358,29.9 22.7974358,30.3 22.6974358,30.6 L22.6974358,30.5 L23.2974358,31.1 C23.1974358,31.3 23.0974358,31.4 22.9974358,31.6 C19.8974358,36.5 18.5974358,42.3 19.4974358,48 L18.6974358,48.2 C18.6974358,48.3 18.5974358,48.3 18.5974358,48.3 C18.4974358,48.6 18.1974358,48.8 17.8974358,49 C16.7974358,49.3 15.6974358,49.5 14.4974358,49.6 C14.2974358,49.6 14.0974358,49.6 13.8974358,49.7 C13.4974358,49.7 13.0974358,49.8 12.6974358,49.8 C12.5974358,49.8 12.4974358,49.9 12.2974358,49.9 C12.1974358,49.9 12.1974358,49.9 12.0974358,50 C10.9974358,50.2 10.2974358,51.2 10.4974358,52.3 C10.6974358,53.2 11.5974358,53.8 12.4974358,53.7 C12.6974358,53.7 12.7974358,53.7 12.9974358,53.6 C13.0974358,53.6 13.0974358,53.6 13.0974358,53.5 C13.0974358,53.4 13.3974358,53.5 13.4974358,53.5 C13.8974358,53.4 14.2974358,53.2 14.5974358,53.1 C14.7974358,53 14.9974358,52.9 15.1974358,52.9 L15.2974358,52.9 C16.3974358,52.5 17.3974358,52.2 18.5974358,52 L18.6974358,52 C18.9974358,52 19.2974358,52.1 19.4974358,52.3 C19.5974358,52.3 19.5974358,52.4 19.5974358,52.4 L20.4974358,52.3 C21.9974358,56.9 24.7974358,61 28.6974358,64 C29.5974358,64.7 30.3974358,65.3 31.3974358,65.8 L30.8974358,66.5 C30.8974358,66.6 30.9974358,66.6 30.9974358,66.6 C31.1974358,66.9 31.1974358,67.3 31.0974358,67.6 C30.6974358,68.6 30.0974358,69.6 29.4974358,70.5 L29.4974358,70.6 C29.3974358,70.8 29.2974358,70.9 29.0974358,71.1 C28.8974358,71.3 28.6974358,71.7 28.3974358,72.1 C28.2974358,72.2 28.2974358,72.3 28.1974358,72.4 C28.1974358,72.4 28.1974358,72.5 28.0974358,72.5 C27.5974358,73.5 27.9974358,74.7 28.8974358,75.2 C29.0974358,75.3 29.3974358,75.4 29.5974358,75.4 C30.3974358,75.4 31.0974358,74.9 31.4974358,74.2 C31.4974358,74.2 31.4974358,74.1 31.5974358,74.1 C31.5974358,74 31.6974358,73.9 31.7974358,73.8 C31.8974358,73.4 32.0974358,73.1 32.1974358,72.7 L32.3974358,72.1 C32.6974358,71 33.1974358,70 33.6974358,69 C33.8974358,68.7 34.1974358,68.5 34.4974358,68.4 C34.5974358,68.4 34.5974358,68.4 34.5974358,68.3 L34.9974358,67.5 C37.7974358,68.6 40.6974358,69.1 43.6974358,69.1 C45.4974358,69.1 47.2974358,68.9 49.0974358,68.4 C50.1974358,68.2 51.2974358,67.8 52.2974358,67.5 L52.6974358,68.2 C52.7974358,68.2 52.7974358,68.2 52.7974358,68.3 C53.0974358,68.4 53.3974358,68.6 53.5974358,68.9 C54.0974358,69.9 54.5974358,70.9 54.8974358,72 L54.8974358,72.1 L55.0974358,72.7 C55.1974358,73.1 55.2974358,73.5 55.4974358,73.8 C55.5974358,73.9 55.5974358,74 55.6974358,74.1 C55.6974358,74.1 55.6974358,74.2 55.7974358,74.2 C56.1974358,74.9 56.8974358,75.4 57.6974358,75.4 C57.9974358,75.4 58.1974358,75.3 58.4974358,75.2 C58.8974358,75 59.2974358,74.6 59.3974358,74.1 C59.4974358,73.6 59.4974358,73.1 59.2974358,72.6 C59.2974358,72.5 59.1974358,72.5 59.1974358,72.5 C59.1974358,72.4 59.0974358,72.3 58.9974358,72.2 C58.7974358,71.8 58.5974358,71.5 58.2974358,71.2 C58.1974358,71 58.0974358,70.9 57.8974358,70.7 L57.8974358,70.5 C57.1974358,69.6 56.6974358,68.6 56.2974358,67.6 C56.1974358,67.3 56.1974358,66.9 56.3974358,66.6 C56.3974358,66.5 56.4974358,66.5 56.4974358,66.5 L56.1974358,65.7 C61.2974358,62.6 65.1974358,57.8 66.9974358,52.1 L67.7974358,52.2 C67.8974358,52.2 67.8974358,52.1 67.8974358,52.1 C68.0974358,51.9 68.3974358,51.8 68.6974358,51.8 L68.7974358,51.8 C69.8974358,52 70.9974358,52.3 71.9974358,52.7 L72.0974358,52.7 C72.2974358,52.8 72.4974358,52.9 72.6974358,52.9 C73.0974358,53.1 73.3974358,53.3 73.7974358,53.4 C73.8974358,53.4 73.9974358,53.5 74.1974358,53.5 C74.2974358,53.5 74.2974358,53.5 74.3974358,53.6 C74.5974358,53.7 74.6974358,53.7 74.8974358,53.7 C75.7974358,53.7 76.5974358,53.1 76.8974358,52.3 C76.7974358,51.2 75.9974358,50.4 75.0974358,50.2 L75.0974358,50.2 Z M46.1974358,47.1 L43.4974358,48.4 L40.7974358,47.1 L40.0974358,44.2 L41.9974358,41.8 L44.9974358,41.8 L46.8974358,44.2 L46.1974358,47.1 L46.1974358,47.1 Z M62.4974358,40.6 C62.9974358,42.7 63.0974358,44.8 62.8974358,46.9 L53.3974358,44.2 C52.4974358,44 51.9974358,43.1 52.1974358,42.2 C52.2974358,41.9 52.3974358,41.7 52.5974358,41.5 L60.0974358,34.7 C61.1974358,36.5 61.9974358,38.5 62.4974358,40.6 L62.4974358,40.6 Z M57.0974358,31 L48.8974358,36.8 C48.1974358,37.2 47.1974358,37.1 46.6974358,36.4 C46.4974358,36.2 46.3974358,36 46.3974358,35.7 L45.7974358,25.6 C50.1974358,26.1 54.0974358,28 57.0974358,31 L57.0974358,31 Z M38.9974358,25.9 L40.9974358,25.5 L40.4974358,35.5 C40.4974358,36.4 39.6974358,37.1 38.7974358,37.1 C38.4974358,37.1 38.2974358,37 37.9974358,36.9 L29.6974358,31 C32.2974358,28.5 35.4974358,26.7 38.9974358,25.9 Z M26.7974358,34.7 L34.1974358,41.3 C34.8974358,41.9 34.9974358,42.9 34.3974358,43.6 C34.1974358,43.9 33.9974358,44 33.5974358,44.1 L23.8974358,46.9 C23.5974358,42.7 24.5974358,38.4 26.7974358,34.7 L26.7974358,34.7 Z M25.0974358,51.6 L34.9974358,49.9 C35.7974358,49.9 36.5974358,50.4 36.6974358,51.2 C36.7974358,51.5 36.7974358,51.9 36.5974358,52.2 L32.7974358,61.4 C29.2974358,59.1 26.4974358,55.6 25.0974358,51.6 L25.0974358,51.6 Z M47.7974358,64 C46.3974358,64.3 44.9974358,64.5 43.4974358,64.5 C41.3974358,64.5 39.1974358,64.1 37.1974358,63.5 L42.0974358,54.6 C42.5974358,54 43.3974358,53.8 44.0974358,54.2 C44.3974358,54.4 44.5974358,54.6 44.8974358,54.9 L49.6974358,63.6 C49.0974358,63.7 48.4974358,63.8 47.7974358,64 L47.7974358,64 Z M59.9974358,55.3 C58.4974358,57.7 56.3974358,59.8 53.9974358,61.3 L50.0974358,51.9 C49.8974358,51.1 50.2974358,50.3 50.9974358,50 C51.2974358,49.9 51.5974358,49.8 51.8974358,49.8 L61.8974358,51.5 C61.3974358,52.9 60.7974358,54.2 59.9974358,55.3 L59.9974358,55.3 Z" id="形状" fill="#FFFFFF"></path>
        </g>
    </g>
</svg>