<!DOCTYPE svg PUBLIC "-//W3C//DTD SVG 1.1//EN" "http://www.w3.org/Graphics/SVG/1.1/DTD/svg11.dtd">
<!-- Uploaded to: SVG Repo, www.svgrepo.com, Transformed by: SVG Repo Mixer Tools -->
<svg width="800px" height="800px" viewBox="-1.6 -1.6 19.20 19.20" xmlns="http://www.w3.org/2000/svg" version="1.1" fill="none" stroke="#d05353" stroke-linecap="round" stroke-linejoin="round" stroke-width="1.5">
<g id="SVGRepo_bgCarrier" stroke-width="0">
<path transform="translate(-1.6, -1.6), scale(0.6)" d="M16,27.815236165055207C18.66138797949388,27.906835443264075,21.380525626985253,30.64486698640696,23.70295358768531,29.341906982215928C26.016166282518352,28.04411705135156,25.473943421182863,24.485516749559864,26.378956519233768,21.99229334028704C27.11624703051731,19.96112940892982,28.03925677275611,18.100598778868132,28.545921340584755,16C29.183635945047776,13.35607618045543,30.872781043924327,10.540139774123787,29.737314199232106,8.06875794913088C28.613951079226286,5.623720288518041,25.414739833371797,5.058187634690006,22.986319575990954,3.899339536470622C20.726896358702415,2.8211372399490435,18.493512806292607,1.7366774810850523,16,1.5132779468383113C13.358236464150078,1.276596289535589,10.54548665084291,1.247829876870703,8.251505431319991,2.5792137248747196C5.959013726017561,3.909733086649444,4.316916198816013,6.258262743653627,3.4869769558593298,8.775602777089386C2.719046972129701,11.10485869229517,3.7842409838192292,13.547789448984469,3.8268202266522806,15.999999999999998C3.868511615723806,18.401077552471882,2.8979969840440876,20.830272397277632,3.735370162872467,23.080987337976683C4.624949718361158,25.47202403117506,6.217215144525566,27.903300119185182,8.597214970205506,28.821999789114336C10.960716174256532,29.734330854272507,13.468026137212611,27.728091043764344,16,27.815236165055207" fill="#a6ccd9" strokewidth="0"/>
</g>
<g id="SVGRepo_tracerCarrier" stroke-linecap="round" stroke-linejoin="round"/>
<g id="SVGRepo_iconCarrier"> <rect height="10.5" width="12.5" y="2.75" x="1.75"/> <path d="m8.75 10.25h2.5m-6.5-4.5 2.5 2.25-2.5 2.25"/> </g>
</svg>